<?xml version="1.0" encoding="utf-8"?>
<!-- Generator: Adobe Illustrator 26.2.1, SVG Export Plug-In . SVG Version: 6.00 Build 0)  -->
<svg version="1.1" id="Camada_1" xmlns="http://www.w3.org/2000/svg" xmlns:xlink="http://www.w3.org/1999/xlink" x="0px" y="0px"
	 viewBox="0 0 666.2 628.4" style="enable-background:new 0 0 666.2 628.4;" xml:space="preserve">
<style type="text/css">
	.st0{fill:#999999;}
</style>
<g>
	<path class="st0" d="M393.9,362.6v4.5c0,33.6-27.4,61-61,61s-61-27.4-61-61v-4.5L78,325.1c-3.9-0.6-7.8-1.7-11.2-3.9v169.1
		c0,41.4,33.6,75,75,75h382.5c41.4,0,75-33.6,75-75V321.2c-3.4,1.7-7.3,2.8-11.2,3.9L393.9,362.6z"/>
	<path class="st0" d="M524.9,169.4h-68.3v-28c0-43.1-35.3-78.4-78.4-78.4h-90.7c-43.1,0-78.4,35.3-78.4,78.4v28h-68.3
		c-40.9,0-73.9,33-73.9,73.9v31.4c0,10.1,7.3,18.5,16.8,20.7l188.2,36.4c0.6-33,27.4-59.4,61-59.4c33,0,60.5,26.3,61,59.4
		l187.6-36.4c10.1-2.2,17.4-10.6,17.4-20.7v-31.9C598.8,202.5,565.8,169.4,524.9,169.4L524.9,169.4z M266.7,140.9
		c0-11.2,9.5-20.2,20.2-20.2h91.3c11.2,0,20.2,9.5,20.2,20.2v28H266.7V140.9z"/>
	<path class="st0" d="M363.6,367.1v-33.6c0-16.8-14-30.8-30.8-30.8s-30.8,14-30.8,30.8v33.6c0,16.8,14,30.8,30.8,30.8
		S363.6,383.9,363.6,367.1z"/>
</g>
</svg>
