<?xml version="1.0" encoding="utf-8"?>
<!-- Generator: Adobe Illustrator 26.2.1, SVG Export Plug-In . SVG Version: 6.00 Build 0)  -->
<svg version="1.1" id="Camada_1" xmlns="http://www.w3.org/2000/svg" xmlns:xlink="http://www.w3.org/1999/xlink" x="0px" y="0px"
	 viewBox="0 0 676 507" style="enable-background:new 0 0 676 507;" xml:space="preserve">
<style type="text/css">
	.st0{fill:#999999;}
</style>
<path class="st0" d="M553.8,43.5H122.2c-17,0-33.3,6.8-45.4,18.8c-12,12-18.8,28.4-18.8,45.4v291.7l0,0c0,17,6.8,33.3,18.8,45.4
	c12,12,28.4,18.8,45.4,18.8h431.7l0,0c17,0,33.3-6.8,45.4-18.8c12-12,18.8-28.4,18.8-45.4V107.7c0-17-6.8-33.3-18.8-45.4
	C587.2,50.3,570.9,43.5,553.8,43.5L553.8,43.5z M233,136.8c15.5,0,30.3,6.1,41.2,17.1c10.9,10.9,17.1,25.8,17.1,41.2
	c0,15.5-6.1,30.3-17.1,41.2c-10.9,10.9-25.8,17.1-41.2,17.1s-30.3-6.1-41.2-17.1c-10.9-10.9-17.1-25.8-17.1-41.2
	c0-15.5,6.1-30.3,17.1-41.2C202.7,143,217.5,136.8,233,136.8z M338,352.7c0,4.6-1.8,9.1-5.1,12.4c-3.3,3.3-7.7,5.1-12.4,5.1h-175
	c-4.6,0-9.1-1.8-12.4-5.1c-3.3-3.3-5.1-7.7-5.1-12.4V341c0-17,6.8-33.3,18.8-45.4c12-12,28.4-18.8,45.4-18.8h81.7l0,0
	c17,0,33.3,6.8,45.4,18.8c12,12,18.8,28.4,18.8,45.4L338,352.7z M530.5,370.2H402.2c-6.3,0-12-3.3-15.2-8.8s-3.1-12.1,0-17.5
	s8.9-8.8,15.2-8.8h128.3c6.3,0,12,3.3,15.2,8.8s3.1,12.1,0,17.5C542.5,366.8,536.8,370.2,530.5,370.2z M530.5,276.8H402.2l0,0
	c-6.3,0-12-3.3-15.2-8.8s-3.1-12.1,0-17.5s8.9-8.8,15.2-8.8h128.3c6.3,0,12,3.3,15.2,8.8s3.1,12.1,0,17.5
	C542.5,273.5,536.8,276.8,530.5,276.8L530.5,276.8z M530.5,183.5H402.2l0,0c-6.3,0-12-3.3-15.2-8.8s-3.1-12.1,0-17.5
	s8.9-8.8,15.2-8.8h128.3c6.3,0,12,3.3,15.2,8.8s3.1,12.1,0,17.5S536.8,183.5,530.5,183.5L530.5,183.5z"/>
</svg>
